<svg xmlns="http://www.w3.org/2000/svg" version="1.1" width="40px" height="40px" style="shape-rendering:geometricPrecision; text-rendering:geometricPrecision; image-rendering:optimizeQuality; fill-rule:evenodd; clip-rule:evenodd" xmlns:xlink="http://www.w3.org/1999/xlink">
<g><path style="opacity:0.992" fill="#d8d8d8" d="M -0.5,-0.5 C 12.8333,-0.5 26.1667,-0.5 39.5,-0.5C 39.5,12.8333 39.5,26.1667 39.5,39.5C 31.5,39.5 23.5,39.5 15.5,39.5C 15.5,31.5 15.5,23.5 15.5,15.5C 20.8333,15.5 26.1667,15.5 31.5,15.5C 31.5,12.8333 31.5,10.1667 31.5,7.5C 26.1667,7.5 20.8333,7.5 15.5,7.5C 13.0504,7.29803 10.717,7.63137 8.5,8.5C 7.63137,10.717 7.29803,13.0504 7.5,15.5C 7.5,23.5 7.5,31.5 7.5,39.5C 4.83333,39.5 2.16667,39.5 -0.5,39.5C -0.5,26.1667 -0.5,12.8333 -0.5,-0.5 Z"/></g>
<g><path style="opacity:0.993" fill="#f18c3f" d="M 15.5,7.5 C 15.5,10.1667 15.5,12.8333 15.5,15.5C 12.8333,15.5 10.1667,15.5 7.5,15.5C 7.29803,13.0504 7.63137,10.717 8.5,8.5C 10.717,7.63137 13.0504,7.29803 15.5,7.5 Z"/></g>
<g><path style="opacity:0.996" fill="#4a4a4a" d="M 15.5,7.5 C 20.8333,7.5 26.1667,7.5 31.5,7.5C 31.5,10.1667 31.5,12.8333 31.5,15.5C 26.1667,15.5 20.8333,15.5 15.5,15.5C 15.5,12.8333 15.5,10.1667 15.5,7.5 Z"/></g>
<g><path style="opacity:0.996" fill="#4a4a4a" d="M 7.5,15.5 C 10.1667,15.5 12.8333,15.5 15.5,15.5C 15.5,23.5 15.5,31.5 15.5,39.5C 12.8333,39.5 10.1667,39.5 7.5,39.5C 7.5,31.5 7.5,23.5 7.5,15.5 Z"/></g>
</svg>
